<svg width="53" height="46" viewBox="0 0 53 46" fill="none" xmlns="http://www.w3.org/2000/svg">
<path d="M26.1544 6.17847C20.9443 6.17847 16.3854 9.00773 14.2145 13.5346C12.6949 16.9297 12.6949 20.8906 14.4316 24.2858L17.905 31.076V34.8484C17.905 36.7345 19.6417 38.2435 21.8126 38.2435C21.8126 39.3752 22.681 40.1296 23.9835 40.1296H27.8911C29.1936 40.1296 30.062 39.3752 30.062 38.2435C32.2328 38.2435 33.9696 36.7345 33.9696 34.8484V31.076L37.443 24.2858C39.1797 20.8906 39.1797 16.9297 37.66 13.5346C35.9233 9.00773 31.3645 6.17847 26.1544 6.17847ZM30.062 34.4711H22.4639V32.5849H30.062V34.4711ZM33.9696 22.7768L30.7132 28.8126H28.3253V26.3606C29.4107 26.1719 30.062 25.4175 30.062 24.4744C30.062 23.3427 29.1936 22.5882 27.8911 22.5882H24.2006C22.8981 22.5882 22.0297 23.3427 22.0297 24.4744C22.0297 25.4175 22.8981 26.1719 23.7664 26.3606V28.8126H21.5955L18.5563 22.7768C17.2538 20.3248 17.2538 17.4955 18.3392 15.0435C19.8588 11.837 22.681 9.95082 26.1544 9.95082C29.6278 9.95082 32.4499 11.837 33.9696 15.0435C35.055 17.4955 35.055 20.3248 33.9696 22.7768Z" fill="white"/>
<path d="M8.13581 8.63049C7.26746 7.87602 5.96493 7.87602 5.09658 8.63049C4.22822 9.38496 4.22822 10.5167 5.09658 11.2711L7.26746 13.1573C7.70164 13.5345 8.13581 13.7232 8.78708 13.7232C9.43834 13.7232 9.87252 13.5345 10.3067 13.1573C11.175 12.4028 11.175 11.2711 10.3067 10.5167L8.13581 8.63049Z" fill="white"/>
<path d="M6.61618 19.3817C7.91871 19.3817 8.78706 18.6272 8.78706 17.4955C8.78706 16.3638 7.91871 15.6093 6.61618 15.6093H4.4453C3.14277 15.6093 2.27441 16.3638 2.27441 17.4955C2.27441 18.6272 3.14277 19.3817 4.4453 19.3817H6.61618Z" fill="white"/>
<path d="M7.26746 21.8337L5.09658 23.7199C4.22822 24.4744 4.22822 25.6061 5.09658 26.3606C5.53075 26.7378 5.96493 26.9264 6.61619 26.9264C7.26746 26.9264 7.70164 26.7378 8.13581 26.3606L10.3067 24.4744C11.175 23.7199 11.175 22.5882 10.3067 21.8337C9.43834 21.0793 8.13581 21.0793 7.26746 21.8337Z" fill="white"/>
<path d="M45.0401 21.8337C44.1718 21.0793 42.8692 21.0793 42.0009 21.8337C41.1325 22.5882 41.1325 23.7199 42.0009 24.4744L44.1718 26.3606C44.6059 26.7378 45.2572 26.9264 45.6914 26.9264C46.1256 26.9264 46.7768 26.7378 47.211 26.3606C48.0793 25.6061 48.0793 24.4744 47.211 23.7199L45.0401 21.8337Z" fill="white"/>
<path d="M47.8628 15.6093H45.6919C44.3893 15.6093 43.521 16.3638 43.521 17.4955C43.521 18.6272 44.3893 19.3817 45.6919 19.3817H47.8628C49.1653 19.3817 50.0336 18.6272 50.0336 17.4955C50.0336 16.3638 49.1653 15.6093 47.8628 15.6093Z" fill="white"/>
<path d="M43.5205 13.7232C44.1718 13.7232 44.6059 13.5345 45.0401 13.1573L47.211 11.2711C48.0793 10.5167 48.0793 9.38496 47.211 8.63049C46.3426 7.87602 45.0401 7.87602 44.1718 8.63049L42.0009 10.5167C41.1325 11.2711 41.1325 12.4028 42.0009 13.1573C42.4351 13.5345 42.8692 13.7232 43.5205 13.7232Z" fill="white"/>
</svg>
