<svg width="65" height="32" viewBox="0 0 65 32" fill="none" xmlns="http://www.w3.org/2000/svg">
<path d="M20.3584 11.9179H18.741V10.3C18.741 8.231 17.0544 6.54752 14.9817 6.54752C12.9091 6.54752 11.2225 8.231 11.2225 10.3V11.9179H9.60505C7.53553 11.9179 5.85205 13.6045 5.85205 15.6772C5.85205 17.7499 7.53553 19.4365 9.60505 19.4365H11.2225V21.0544C11.2225 23.1234 12.9091 24.8068 14.9817 24.8068C17.0544 24.8068 18.741 23.1233 18.741 21.0544V19.4365H20.3584C22.428 19.4365 24.1114 17.7499 24.1114 15.6772C24.1113 13.6045 22.4278 11.9179 20.3584 11.9179ZM20.3584 17.2883H17.667C17.0733 17.2883 16.593 17.7693 16.593 18.3624V21.0544C16.593 21.9391 15.8702 22.6587 14.9819 22.6587C14.0935 22.6587 13.3708 21.9391 13.3708 21.0544V18.3624C13.3708 17.7691 12.8903 17.2883 12.2967 17.2883H9.60505C8.71982 17.2883 8.00024 16.5656 8.00024 15.6772C8.00024 14.7888 8.71982 14.0661 9.60505 14.0661H12.2965C12.8902 14.0661 13.3705 13.5852 13.3705 12.9921V10.3C13.3705 9.41529 14.0932 8.6957 14.9816 8.6957C15.87 8.6957 16.5927 9.41529 16.5927 10.3V12.9921C16.5927 13.5853 17.0732 14.0661 17.6668 14.0661H20.3582C21.2434 14.0661 21.963 14.7888 21.963 15.6772C21.963 16.5656 21.2437 17.2883 20.3584 17.2883Z" fill="#4C4C4C"/>
<path d="M49.8887 1.17726H41.2961C41.2961 0.584049 42.3701 5.47351 41.2961 1.17726H34.0587C31.6161 1.17726 27.7734 1.1772 25.1851 1.1772C23.1414 1.1772 35.4445 1.17726 39.2709 1.17726C41.4189 1.17726 23.48 1.38155 26.382 1.17727C30.9314 1.12784 49.8887 1.17726 39.2709 1.17726C25.1851 1.1772 41.2961 1.17726 39.7925 1.17726C37.6774 1.17726 28.0809 0.820511 28.555 1.17722C30.7715 1.13391 23.1578 1.17948 19.2778 1.17714C19.2778 1.96218 40.3019 0.390087 39.2709 1.17726C23.2001 1.17714 32.8265 1.17727 26.382 1.17727C15.5185 1.24537 15.5186 1.17715 26.382 1.17727L24.1111 1.17714C23.5174 1.17714 24.1111 0.58405 24.1111 1.17714H14.4445C14.3165 1.17714 14.1937 1.2013 14.0805 1.24536C6.43185 1.97287 0.481445 8.49332 0.481445 16.2142C0.481445 24.5057 7.22695 31.2512 15.5185 31.2512C20.4735 31.2512 25.0435 28.8534 27.8598 24.8068H37.5475C40.3638 28.8534 44.9338 31.2512 49.8888 31.2512C58.1804 31.2512 64.9259 24.5057 64.9259 16.2142C64.9259 7.92264 58.1803 1.17726 49.8887 1.17726ZM49.8887 29.103C45.4708 29.103 41.4105 26.8788 39.0253 23.1536C38.8281 22.8453 38.4872 22.6586 38.1212 22.6586H27.2861C26.9201 22.6586 26.5791 22.8453 26.382 23.1536C23.9968 26.8788 19.9366 29.103 15.5186 29.103C8.41124 29.103 2.62976 23.3209 2.62976 16.2142C2.62976 9.51487 7.85541 3.87021 14.5264 3.36309C14.5966 3.3578 14.6659 3.34471 14.7319 3.32532H25.1853H40.2223H49.889C56.9963 3.32532 62.7778 9.10743 62.7778 16.2142C62.7776 23.3211 56.9961 29.103 49.8887 29.103Z" fill="#4C4C4C"/>
<path d="M42.6869 12.205C40.5574 12.205 38.8257 13.9371 38.8257 16.0662C38.8257 18.1953 40.5574 19.9275 42.6869 19.9275C44.8165 19.9275 46.5482 18.1953 46.5482 16.0662C46.5482 13.9371 44.8165 12.205 42.6869 12.205ZM42.6869 17.9969C41.6227 17.9969 40.7563 17.1311 40.7563 16.0662C40.7563 15.0014 41.6226 14.1356 42.6869 14.1356C43.7512 14.1356 44.6176 15.0014 44.6176 16.0662C44.6176 17.1311 43.7512 17.9969 42.6869 17.9969Z" fill="#4C4C4C"/>
<path d="M56.2021 12.2052C54.0725 12.2052 52.3408 13.9373 52.3408 16.0664C52.3408 18.1955 54.0725 19.9277 56.2021 19.9277C58.3316 19.9277 60.0633 18.1955 60.0633 16.0664C60.0633 13.9373 58.3316 12.2052 56.2021 12.2052ZM56.2021 17.9971C55.1378 17.9971 54.2714 17.1313 54.2714 16.0664C54.2714 15.0016 55.1377 14.1357 56.2021 14.1357C57.2663 14.1357 58.1327 15.0016 58.1327 16.0664C58.1327 17.1313 57.2665 17.9971 56.2021 17.9971Z" fill="#4C4C4C"/>
<path d="M49.4447 6.41318C47.3152 6.41318 45.5835 8.14533 45.5835 10.2744C45.5835 12.4035 47.3152 14.1357 49.4447 14.1357C51.5743 14.1357 53.306 12.4035 53.306 10.2744C53.306 8.14533 51.5743 6.41318 49.4447 6.41318ZM49.4447 12.2051C48.3805 12.2051 47.5141 11.3393 47.5141 10.2744C47.5141 9.20959 48.3804 8.34375 49.4447 8.34375C50.509 8.34375 51.3754 9.20959 51.3754 10.2744C51.3754 11.3393 50.509 12.2051 49.4447 12.2051Z" fill="#4C4C4C"/>
<path d="M49.4447 17.9971C47.3152 17.9971 45.5835 19.7292 45.5835 21.8584C45.5835 23.9875 47.3152 25.7196 49.4447 25.7196C51.5743 25.7196 53.306 23.9875 53.306 21.8584C53.306 19.7292 51.5743 17.9971 49.4447 17.9971ZM49.4447 23.789C48.3805 23.789 47.5141 22.9232 47.5141 21.8584C47.5141 20.7935 48.3804 19.9277 49.4447 19.9277C50.509 19.9277 51.3754 20.7935 51.3754 21.8584C51.3754 22.9232 50.509 23.789 49.4447 23.789Z" fill="#4C4C4C"/>
</svg>
